<svg xmlns="http://www.w3.org/2000/svg" viewBox="0 0 450 200"><defs><style>.cls-1{fill:#7f3f98;}</style></defs><title>finna-fi</title><g id="Grafiikka"><path class="cls-1" d="M35,78.23a2,2,0,1,1-2-2,2,2,0,0,1,2,2M63,41.17a2,2,0,1,1,2,2,2,2,0,0,1-2-2m-2.7,22.08a2,2,0,1,1,2,2,2,2,0,0,1-2-2M44.78,55a3.68,3.68,0,1,1,3.69-3.68A3.68,3.68,0,0,1,44.78,55M48.7,82.37a6.64,6.64,0,0,0-2.14.95V58.15a6.79,6.79,0,0,0,2.14-1Zm1.74,3.16a3.64,3.64,0,1,1-3.63,3.64,3.64,3.64,0,0,1,3.63-3.64m34,3c0,5-4.43,7.34-4.6,7.43l-25.11,12.5a10.45,10.45,0,0,1-4.69,1.07,13.39,13.39,0,0,1-5.17-1.07L29.7,100.9l15.11-7.55a7,7,0,0,0,12.66-4.18V67.23l1.83-.88A4.31,4.31,0,1,0,58,63.25v.06l-2.85,1.43a1.64,1.64,0,0,0-.91,1.47v17A7,7,0,0,0,52,82.32V49.53l10.16-5.1a4.3,4.3,0,1,0-1.5-3.26c0,.1,0,.2,0,.3L50.13,46.78a7,7,0,0,0-12.38,4.57c0,.15,0,22.25,0,22.25l-2.27,1.13a4.3,4.3,0,1,0,1.81,3.5,3.82,3.82,0,0,0-.06-.68l2.91-1.46A1.64,1.64,0,0,0,41,74.61V57.3a7.19,7.19,0,0,0,2.21.92V90.43L26,99.05,19.78,96c-4.46-2.23-4.59-7.24-4.6-7.43V42.43c0-5,4.43-7.33,4.6-7.42L44.88,22.5a10.46,10.46,0,0,1,4.7-1.06,13.35,13.35,0,0,1,5.16,1.06L79.85,35c4.46,2.22,4.59,7.23,4.6,7.42ZM82.63,29.44,57.52,16.94a18.94,18.94,0,0,0-7.94-1.73,16.58,16.58,0,0,0-7.48,1.73L17,29.44c-.33.16-8,4.11-8,13v46.1c0,.37.09,9,8,13L42.1,114a19.06,19.06,0,0,0,7.95,1.73A16.53,16.53,0,0,0,57.52,114l25.11-12.51c.32-.16,8-4.1,8-13V42.43c0-.37-.09-9-8-13"/><path class="cls-1" d="M117.94,92.53a3.83,3.83,0,0,0,3.72-4V67.72h10.23a4,4,0,0,0,0-8H121.66V44.59h11.78a4,4,0,0,0,0-8.05h-15.5a3.83,3.83,0,0,0-3.72,4V88.51a3.83,3.83,0,0,0,3.72,4m44.48.34a3.83,3.83,0,0,0,3.72-4V40.23a3.73,3.73,0,1,0-7.44,0V88.84a3.83,3.83,0,0,0,3.72,4M217,92.79a4,4,0,0,0,2.87-4V40.23a3.73,3.73,0,1,0-7.43,0v31c-3.34-7.3-6.9-15.43-9.77-21.8-1.7-3.77-3.33-7.37-4.88-11a3.65,3.65,0,0,0-4.19-2.17,3.81,3.81,0,0,0-2.86,3.93V88.84a3.73,3.73,0,1,0,7.44,0v-31c3.17,7.3,6.9,15.42,9.76,21.79,1.71,3.77,3.33,7.38,4.88,11A3.6,3.6,0,0,0,217,92.79m53.78,0a4,4,0,0,0,2.87-4V40.23a3.73,3.73,0,1,0-7.44,0v31c-3.33-7.3-6.9-15.43-9.76-21.8-1.71-3.77-3.33-7.37-4.89-11a3.63,3.63,0,0,0-4.18-2.17,3.81,3.81,0,0,0-2.86,3.93V88.84a3.73,3.73,0,1,0,7.43,0v-31c3.19,7.3,6.9,15.42,9.77,21.79,1.71,3.77,3.33,7.38,4.88,11a3.59,3.59,0,0,0,4.18,2.19m56.18-5L314.61,39.15a3.63,3.63,0,0,0-7.13,0l-12.4,48.61a4,4,0,0,0,2.56,4.94,3.65,3.65,0,0,0,4.56-2.77c.23-.67.39-1.51.63-2.43.38-1.59.93-3.77,1.62-6.37h13.18c.61,2.6,1.24,4.78,1.63,6.37.23.92.38,1.76.62,2.43a3.66,3.66,0,0,0,4.57,2.77A4,4,0,0,0,327,87.76M315.53,73.09h-9c1.47-5.78,3-12.24,4.49-17.7,1.47,5.46,3,11.92,4.49,17.7"/></g><g id="FI"><path class="cls-1" d="M299.13,158.49v15.9a1.25,1.25,0,0,0,1.29,1.19,1.23,1.23,0,0,0,1.3-1.19v-15.9a1.23,1.23,0,0,0-1.3-1.19,1.24,1.24,0,0,0-1.29,1.19m-20.61,0v15.9a1.25,1.25,0,0,0,1.29,1.19,1.22,1.22,0,0,0,1.29-1.19v-15.9a1.22,1.22,0,0,0-1.29-1.19,1.24,1.24,0,0,0-1.29,1.19m-63.42,0v15.9a1.25,1.25,0,0,0,1.29,1.19,1.22,1.22,0,0,0,1.29-1.19v-15.9a1.22,1.22,0,0,0-1.29-1.19,1.24,1.24,0,0,0-1.29,1.19m-92.25,6.76h-6v-2.79a3,3,0,0,1,6,0Zm2.58,1.19v-4a5.62,5.62,0,0,0-11.21,0v7.95a5.12,5.12,0,0,0,3.45,4.77,6,6,0,0,0,6.13-1.11,1.13,1.13,0,0,0,.38-.84,1,1,0,0,0-.38-.83,1.36,1.36,0,0,0-1-.36,1.29,1.29,0,0,0-.91.36,3.16,3.16,0,0,1-3.28.59,2.75,2.75,0,0,1-1.85-2.58v-2.78h7.33a1.22,1.22,0,0,0,1.29-1.19m7.46,8.54a1.1,1.1,0,0,0-.47-1.63,1.93,1.93,0,0,1-1.08-1.71V150.55a1.23,1.23,0,0,0-1.29-1.2,1.26,1.26,0,0,0-1.3,1.2v21.09a4.44,4.44,0,0,0,2.37,3.78,1.33,1.33,0,0,0,1.77-.44m6.67-22.45a1.73,1.73,0,1,0-1.73,1.59,1.62,1.62,0,0,0,1.73-1.59m3.88,20.5h-3a2.79,2.79,0,1,1,0-5.56h3Zm-.82-15.33a5.86,5.86,0,0,0-6,1.11,1.1,1.1,0,0,0-.34.83,1.26,1.26,0,0,0,.34.84,1.4,1.4,0,0,0,1.85,0,3,3,0,0,1,3.2-.6,2.76,2.76,0,0,1,1.81,2.51v2.7h-3a5.18,5.18,0,1,0,0,10.33h4.31a1.25,1.25,0,0,0,1.29-1.2V162.39a5.06,5.06,0,0,0-3.4-4.69m3.84-5.17a1.73,1.73,0,1,0-1.73,1.59,1.62,1.62,0,0,0,1.73-1.59m23.37,21.86V162.62a5.42,5.42,0,0,0-5.61-5.16H151.28a1.22,1.22,0,0,0-1.29,1.19v15.74a1.22,1.22,0,0,0,1.29,1.19,1.25,1.25,0,0,0,1.3-1.19V159.84h6v14.55a1.23,1.23,0,0,0,1.3,1.19,1.25,1.25,0,0,0,1.29-1.19V159.84h3a2.89,2.89,0,0,1,3,2.78v11.77a1.22,1.22,0,0,0,1.29,1.19,1.26,1.26,0,0,0,1.3-1.19m15.3-15.54a1.19,1.19,0,0,0-.86-1.51,1.35,1.35,0,0,0-1.6.79l-4,12.12-3.93-12.12a1.35,1.35,0,0,0-1.59-.79,1.2,1.2,0,0,0-.87,1.51l5.05,15.54-1.55,4.76a2.93,2.93,0,0,1-2.89,2,1.19,1.19,0,1,0,0,2.38,5.88,5.88,0,0,0,3.36-1,5.09,5.09,0,0,0,2-2.66l1.64-5.09Zm14.74,15-5.43-9.14,5.26-5.41a1.11,1.11,0,0,0-.08-1.66,1.42,1.42,0,0,0-1.86.08l-7.2,7.43V150.55a1.25,1.25,0,0,0-1.29-1.2,1.23,1.23,0,0,0-1.29,1.2v23.84a1.22,1.22,0,0,0,1.29,1.19,1.25,1.25,0,0,0,1.29-1.19V168.7l2.07-2.1,5,8.38a1.33,1.33,0,0,0,1.77.44,1.09,1.09,0,0,0,.51-1.59m11.9-3.5a4.85,4.85,0,0,0-2.24-3.73l-4-2.58a2.26,2.26,0,0,1-.3-3.7,2.61,2.61,0,0,1,2.16-.6,2.52,2.52,0,0,1,1.85,1.15,1.33,1.33,0,0,0,1.77.44,1.12,1.12,0,0,0,.47-1.63,5.38,5.38,0,0,0-8-1.11,4.43,4.43,0,0,0-1.69,3.82A4.65,4.65,0,0,0,204,166l4,2.62a2.34,2.34,0,0,1,1.17,1.91,2.27,2.27,0,0,1-.87,2,2.87,2.87,0,0,1-2.28.63,2.79,2.79,0,0,1-2-1.23,1.35,1.35,0,0,0-1.77-.44,1.13,1.13,0,0,0-.48,1.63,5.39,5.39,0,0,0,3.84,2.43,5.51,5.51,0,0,0,4.4-1.27,4.53,4.53,0,0,0,1.72-3.94m6.34-17.8a1.73,1.73,0,1,0-1.72,1.59,1.61,1.61,0,0,0,1.72-1.59m7.51,0a1.74,1.74,0,1,0-1.73,1.59,1.62,1.62,0,0,0,1.73-1.59M229.5,173h-3a2.79,2.79,0,1,1,0-5.56h3Zm-.82-15.33a5.85,5.85,0,0,0-6,1.11,1.07,1.07,0,0,0-.35.83,1.22,1.22,0,0,0,.35.84,1.33,1.33,0,0,0,.91.35,1.35,1.35,0,0,0,.94-.35,3,3,0,0,1,3.2-.6,2.76,2.76,0,0,1,1.81,2.51v2.7h-3a5.18,5.18,0,1,0,0,10.33h4.31a1.25,1.25,0,0,0,1.29-1.2V162.39a5.06,5.06,0,0,0-3.4-4.69m3.83-5.17a1.73,1.73,0,1,0-1.72,1.59,1.61,1.61,0,0,0,1.72-1.59m19.06,12.72h-6v-2.79a3,3,0,0,1,6,0Zm2.59,1.19v-4a5.62,5.62,0,0,0-11.21,0v7.95a5.1,5.1,0,0,0,3.45,4.77,6,6,0,0,0,6.12-1.11,1.11,1.11,0,0,0,.39-.84,1,1,0,0,0-.39-.83,1.32,1.32,0,0,0-1-.36,1.29,1.29,0,0,0-.9.36,3.17,3.17,0,0,1-3.28.59,2.76,2.76,0,0,1-1.86-2.58v-2.78h7.33a1.23,1.23,0,0,0,1.3-1.19m6.72,4V159.84h3a1.19,1.19,0,1,0,0-2.38h-3v-6.91a1.29,1.29,0,0,0-2.58,0v6.91h-2.16a1.19,1.19,0,1,0,0,2.38h2.16v10.57a5.39,5.39,0,0,0,5.6,5.17,1.2,1.2,0,1,0,0-2.39,2.89,2.89,0,0,1-3-2.78m15.18-.08a4.9,4.9,0,0,0-2.24-3.73l-4-2.58a2.21,2.21,0,0,1-1.12-1.8,2.17,2.17,0,0,1,.82-1.9,2.58,2.58,0,0,1,2.15-.6,2.5,2.5,0,0,1,1.85,1.15,1.33,1.33,0,0,0,1.77.44,1.13,1.13,0,0,0,.48-1.63,5.39,5.39,0,0,0-8-1.11,4.42,4.42,0,0,0-1.68,3.82,4.62,4.62,0,0,0,2.2,3.57l4,2.62a2.36,2.36,0,0,1,1.16,1.91,2.23,2.23,0,0,1-.86,2,2.89,2.89,0,0,1-2.29.63,2.79,2.79,0,0,1-2-1.23,1.35,1.35,0,0,0-1.77-.44,1.13,1.13,0,0,0-.47,1.63,5.37,5.37,0,0,0,3.84,2.43,5.49,5.49,0,0,0,4.39-1.27,4.53,4.53,0,0,0,1.73-3.94m5.48-17.8a1.73,1.73,0,1,0-1.73,1.59,1.62,1.62,0,0,0,1.73-1.59m14.74,6.32a1.19,1.19,0,0,0-.86-1.51,1.42,1.42,0,0,0-1.64.79l-1.42,4.41c-.82,2.51-1.82,5.49-2.51,7.71-.73-2.22-1.68-5.2-2.49-7.71l-1.43-4.41a1.37,1.37,0,0,0-1.59-.79,1.26,1.26,0,0,0-.91,1.51l5.18,15.89a1.35,1.35,0,0,0,2.5,0Zm5.86-6.32a1.73,1.73,0,1,0-1.72,1.59,1.61,1.61,0,0,0,1.72-1.59M310,175a1.09,1.09,0,0,0-.47-1.63,1.93,1.93,0,0,1-1.08-1.71V150.55a1.23,1.23,0,0,0-1.29-1.2,1.25,1.25,0,0,0-1.29,1.2v21.09a4.42,4.42,0,0,0,2.37,3.78A1.32,1.32,0,0,0,310,175m6.9,0a1.1,1.1,0,0,0-.47-1.63,1.93,1.93,0,0,1-1.08-1.71V150.55a1.23,1.23,0,0,0-1.29-1.2,1.25,1.25,0,0,0-1.3,1.2v21.09a4.44,4.44,0,0,0,2.37,3.78,1.33,1.33,0,0,0,1.77-.44m11-9.73h-6v-2.79a3,3,0,0,1,6,0Zm2.58,1.19v-4a5.62,5.62,0,0,0-11.21,0v7.95a5.12,5.12,0,0,0,3.45,4.77,6,6,0,0,0,6.12-1.11,1.11,1.11,0,0,0,.39-.84,1,1,0,0,0-.39-.83,1.37,1.37,0,0,0-1.85,0,3.16,3.16,0,0,1-3.28.59,2.75,2.75,0,0,1-1.85-2.58v-2.78h7.33a1.22,1.22,0,0,0,1.29-1.19"/><path class="cls-1" d="M309.45,121.45v15.89a1.24,1.24,0,0,0,1.29,1.19,1.22,1.22,0,0,0,1.29-1.19V121.45a1.22,1.22,0,0,0-1.29-1.19,1.25,1.25,0,0,0-1.29,1.19m-58.68,0v15.89a1.24,1.24,0,0,0,1.29,1.19,1.22,1.22,0,0,0,1.29-1.19V121.45a1.22,1.22,0,0,0-1.29-1.19,1.25,1.25,0,0,0-1.29,1.19m-120.84,0v15.89a1.25,1.25,0,0,0,1.3,1.19,1.22,1.22,0,0,0,1.29-1.19V121.45a1.22,1.22,0,0,0-1.29-1.19,1.26,1.26,0,0,0-1.3,1.19m-1.74-7a1.27,1.27,0,0,0-1.38-1.28H115.6a1.28,1.28,0,1,0,0,2.55h4.23v21.61a1.31,1.31,0,0,0,1.38,1.27,1.26,1.26,0,0,0,1.38-1.27V115.73h4.22a1.27,1.27,0,0,0,1.38-1.27m4.76,1a1.73,1.73,0,1,0-1.72,1.59,1.61,1.61,0,0,0,1.72-1.59M145.7,128.2h-6v-2.77a3,3,0,0,1,6,0Zm2.58,1.19v-4a5.62,5.62,0,0,0-11.21,0v7.94a5.13,5.13,0,0,0,3.45,4.77,6,6,0,0,0,6.13-1.12,1.1,1.1,0,0,0,.38-.83,1,1,0,0,0-.38-.84,1.38,1.38,0,0,0-1-.35,1.33,1.33,0,0,0-.91.35,3.13,3.13,0,0,1-3.27.6,2.76,2.76,0,0,1-1.86-2.58v-2.78H147a1.23,1.23,0,0,0,1.29-1.2m7.7,4V122.8h3a1.19,1.19,0,1,0,0-2.38h-3V113.5a1.3,1.3,0,0,0-2.59,0v6.92h-2.16a1.19,1.19,0,1,0,0,2.38h2.16v10.57a5.38,5.38,0,0,0,5.6,5.16,1.19,1.19,0,1,0,0-2.38,2.88,2.88,0,0,1-3-2.78m14.9,0a3,3,0,0,1-6,0v-7.94a3,3,0,0,1,6,0Zm2.58,0v-7.94a5.62,5.62,0,0,0-11.21,0v7.94a5.62,5.62,0,0,0,11.21,0M184.91,136h-3a2.79,2.79,0,1,1,0-5.56h3Zm2.59,1.19V125.34a5.06,5.06,0,0,0-3.4-4.68,5.85,5.85,0,0,0-6,1.11,1,1,0,0,0-.39.83,1.11,1.11,0,0,0,.39.84,1.29,1.29,0,0,0,.9.36,1.31,1.31,0,0,0,.95-.36,3,3,0,0,1,3.19-.6,2.74,2.74,0,0,1,1.81,2.5v2.71h-3a5.18,5.18,0,1,0,0,10.32h4.31a1.24,1.24,0,0,0,1.29-1.19m16.4-3.81V122.8h3a1.19,1.19,0,1,0,0-2.38h-3V113.5a1.29,1.29,0,0,0-2.58,0v6.92h-2.16a1.19,1.19,0,1,0,0,2.38h2.16v10.57a5.38,5.38,0,0,0,5.6,5.16,1.19,1.19,0,1,0,0-2.38,2.89,2.89,0,0,1-3-2.78M218,136h-3a2.79,2.79,0,1,1,0-5.56h3Zm2.59,1.19V125.34a5.07,5.07,0,0,0-3.4-4.68,5.85,5.85,0,0,0-6,1.11,1,1,0,0,0-.39.83,1.11,1.11,0,0,0,.39.84,1.29,1.29,0,0,0,.9.36,1.32,1.32,0,0,0,.95-.36,3,3,0,0,1,3.19-.6,2.74,2.74,0,0,1,1.81,2.5v2.71h-3a5.18,5.18,0,1,0,0,10.32h4.31a1.24,1.24,0,0,0,1.29-1.19m12.68-14.46a1.14,1.14,0,0,0-.48-1.63,6.37,6.37,0,0,0-2.8-.67h-3.8a1.22,1.22,0,0,0-1.29,1.19v15.73a1.3,1.3,0,0,0,2.59,0V122.8H230a3.35,3.35,0,0,1,1.51.36,1.29,1.29,0,0,0,1.77-.44m14-.91a1.19,1.19,0,0,0-.86-1.51,1.41,1.41,0,0,0-1.64.79l-1.43,4.41c-.82,2.51-1.81,5.48-2.5,7.71-.73-2.23-1.68-5.2-2.5-7.71L237,121.09a1.39,1.39,0,0,0-1.6-.79,1.26,1.26,0,0,0-.9,1.51l5.17,15.89a1.34,1.34,0,0,0,1.25.83,1.32,1.32,0,0,0,1.25-.83Zm6.46-6.32a1.73,1.73,0,1,0-1.72,1.59,1.61,1.61,0,0,0,1.72-1.59m8,17.88V122.8h3a1.19,1.19,0,1,0,0-2.38h-3V113.5a1.3,1.3,0,0,0-2.59,0v6.92h-2.15a1.19,1.19,0,1,0,0,2.38h2.15v10.57a5.39,5.39,0,0,0,5.61,5.16,1.19,1.19,0,1,0,0-2.38,2.89,2.89,0,0,1-3-2.78m15.78-.08a4.91,4.91,0,0,0-2.24-3.74l-4-2.58a2.18,2.18,0,0,1-1.12-1.79,2.23,2.23,0,0,1,.82-1.9,2.58,2.58,0,0,1,2.15-.6,2.5,2.5,0,0,1,1.86,1.16,1.33,1.33,0,0,0,1.77.43,1.13,1.13,0,0,0,.47-1.63,5.43,5.43,0,0,0-3.71-2.34,5.51,5.51,0,0,0-4.27,1.23,4.42,4.42,0,0,0-1.68,3.81,4.63,4.63,0,0,0,2.2,3.58l4,2.62a2.35,2.35,0,0,1,1.17,1.91,2.28,2.28,0,0,1-.87,2,2.87,2.87,0,0,1-2.28.63,2.8,2.8,0,0,1-2-1.23,1.33,1.33,0,0,0-1.77-.44,1.13,1.13,0,0,0-.48,1.63,5.38,5.38,0,0,0,3.84,2.42,5.52,5.52,0,0,0,4.4-1.27,4.52,4.52,0,0,0,1.72-3.93M289,128.2h-6v-2.77a3,3,0,0,1,6,0Zm2.58,1.19v-4a5.62,5.62,0,0,0-11.2,0v7.94a5.11,5.11,0,0,0,3.45,4.77A6,6,0,0,0,290,137a1.08,1.08,0,0,0,.39-.83,1,1,0,0,0-.39-.84A1.36,1.36,0,0,0,289,135a1.33,1.33,0,0,0-.91.35,3.13,3.13,0,0,1-3.27.6,2.76,2.76,0,0,1-1.86-2.58v-2.78h7.33a1.23,1.23,0,0,0,1.29-1.2m15-7.58a1.19,1.19,0,0,0-.86-1.51,1.41,1.41,0,0,0-1.64.79l-1.42,4.41c-.82,2.51-1.81,5.48-2.5,7.71-.74-2.23-1.69-5.2-2.5-7.71l-1.43-4.41a1.37,1.37,0,0,0-1.59-.79,1.26,1.26,0,0,0-.91,1.51l5.18,15.89a1.36,1.36,0,0,0,2.5,0Zm5.86-6.32a1.73,1.73,0,1,0-1.72,1.59,1.61,1.61,0,0,0,1.72-1.59m8.5,22.45a1.1,1.1,0,0,0-.48-1.63,2,2,0,0,1-1.08-1.71V113.5a1.22,1.22,0,0,0-1.29-1.19,1.25,1.25,0,0,0-1.29,1.19v21.1a4.41,4.41,0,0,0,2.37,3.77,1.34,1.34,0,0,0,1.77-.43m7.5,0a1.1,1.1,0,0,0-.48-1.63,2,2,0,0,1-1.07-1.71V113.5a1.23,1.23,0,0,0-1.3-1.19,1.25,1.25,0,0,0-1.29,1.19v21.1a4.41,4.41,0,0,0,2.37,3.77,1.34,1.34,0,0,0,1.77-.43m11.34-9.74h-6v-2.77a3,3,0,0,1,6,0Zm2.59,1.19v-4a5.63,5.63,0,0,0-11.22,0v7.94a5.13,5.13,0,0,0,3.45,4.77,6,6,0,0,0,6.12-1.12,1.09,1.09,0,0,0,.4-.83,1,1,0,0,0-.4-.84,1.4,1.4,0,0,0-1.85,0,3.14,3.14,0,0,1-3.28.6,2.77,2.77,0,0,1-1.85-2.58v-2.78h7.33a1.23,1.23,0,0,0,1.3-1.2m8.7,11.93a2.89,2.89,0,0,1-3,2.78,1.19,1.19,0,1,0,0,2.38,5.39,5.39,0,0,0,5.61-5.16V121.45a1.22,1.22,0,0,0-1.29-1.19,1.26,1.26,0,0,0-1.3,1.19Zm3-25.83a1.73,1.73,0,1,0-1.72,1.59,1.61,1.61,0,0,0,1.72-1.59M364.89,136h-3a2.79,2.79,0,1,1,0-5.56h3Zm2.59,1.19V125.34a5.07,5.07,0,0,0-3.41-4.68,5.86,5.86,0,0,0-6,1.11,1,1,0,0,0-.38.83,1.1,1.1,0,0,0,.38.84,1.38,1.38,0,0,0,1.86,0,3,3,0,0,1,3.19-.6,2.74,2.74,0,0,1,1.81,2.5v2.71h-3a5.18,5.18,0,1,0,0,10.32h4.31a1.25,1.25,0,0,0,1.3-1.19"/></g></svg>