<svg xmlns="http://www.w3.org/2000/svg" xmlns:xlink="http://www.w3.org/1999/xlink" viewBox="0 0 220.44 103.49"><defs><style>.cls-1{fill:none;}.cls-2{clip-path:url(#clip-path);}.cls-3{fill:#81358a;}</style><clipPath id="clip-path" transform="translate(-34.86 -21.95)"><rect class="cls-1" width="281.44" height="146.62"/></clipPath></defs><title>Asset 5</title><g id="Layer_2" data-name="Layer 2"><g id="Header_Nav" data-name="Header Nav"><g class="cls-2"><path class="cls-3" d="M50.86,60.71a1.24,1.24,0,1,1-1.24-1.24,1.23,1.23,0,0,1,1.24,1.24M68.07,37.92a1.23,1.23,0,1,1,1.23,1.23,1.24,1.24,0,0,1-1.23-1.23M66.41,51.5a1.24,1.24,0,1,1,1.24,1.24,1.24,1.24,0,0,1-1.24-1.24m-9.52-5.05a2.26,2.26,0,1,1,2.26-2.26,2.26,2.26,0,0,1-2.26,2.26M59.3,63.25a4.25,4.25,0,0,0-1.32.58V48.36a4.26,4.26,0,0,0,1.32-.59Zm1.07,1.95a2.23,2.23,0,1,1-2.23,2.24,2.23,2.23,0,0,1,2.23-2.24M81.27,67a5.44,5.44,0,0,1-2.83,4.56L63,79.29a6.39,6.39,0,0,1-2.89.66A8.18,8.18,0,0,1,57,79.3l-9.34-4.65L56.9,70a4.32,4.32,0,0,0,7.79-2.57c0-.38,0-13.49,0-13.49l1.12-.54A2.65,2.65,0,1,0,65,51.5s0,0,0,0l-1.75.88a1,1,0,0,0-.56.91V63.79a4.29,4.29,0,0,0-1.36-.57V43.06l6.25-3.14a2.65,2.65,0,1,0-.92-2c0,.06,0,.12,0,.19l-6.49,3.26a4.32,4.32,0,0,0-7.61,2.81c0,.09,0,13.68,0,13.68l-1.39.7a2.65,2.65,0,1,0,1.11,2.15,2.67,2.67,0,0,0,0-.42L54,59.39a1,1,0,0,0,.56-.91V47.84a4.36,4.36,0,0,0,1.36.57V68.21l-10.61,5.3-3.83-1.91A5.44,5.44,0,0,1,38.69,67V38.69a5.43,5.43,0,0,1,2.82-4.56l15.44-7.69a6.42,6.42,0,0,1,2.89-.66,8.14,8.14,0,0,1,3.17.66l15.44,7.69a5.45,5.45,0,0,1,2.83,4.56ZM80.16,30.71,64.72,23A11.72,11.72,0,0,0,59.84,22,10.19,10.19,0,0,0,55.24,23L39.8,30.71a9.3,9.3,0,0,0-4.94,8V67a9.3,9.3,0,0,0,4.95,8l15.44,7.69a11.72,11.72,0,0,0,4.88,1.06,10.22,10.22,0,0,0,4.6-1.06L80.16,75a9.29,9.29,0,0,0,4.95-8V38.69a9.3,9.3,0,0,0-4.95-8" transform="translate(-34.86 -21.95)"/><path class="cls-3" d="M101.87,69.5A2.36,2.36,0,0,0,104.16,67V54.25h6.29a2.48,2.48,0,0,0,0-4.95h-6.29V40h7.24a2.48,2.48,0,0,0,0-4.95h-9.53a2.36,2.36,0,0,0-2.29,2.47V67a2.36,2.36,0,0,0,2.29,2.47m27.35.21a2.36,2.36,0,0,0,2.29-2.48V37.34a2.29,2.29,0,1,0-4.57,0V67.23a2.36,2.36,0,0,0,2.29,2.48m33.58,0a2.47,2.47,0,0,0,1.76-2.43V37.34a2.29,2.29,0,1,0-4.57,0V56.41c-2.05-4.48-4.24-9.48-6-13.4-1-2.32-2-4.53-3-6.75a2.25,2.25,0,0,0-2.57-1.33,2.35,2.35,0,0,0-1.76,2.42V67.23a2.29,2.29,0,1,0,4.57,0V48.16c2,4.49,4.24,9.48,6,13.4,1.05,2.32,2,4.53,3,6.75a2.21,2.21,0,0,0,2.57,1.35m33.07,0a2.47,2.47,0,0,0,1.76-2.43V37.34a2.3,2.3,0,1,0-4.58,0V56.41c-2-4.48-4.24-9.48-6-13.4-1-2.32-2-4.53-3-6.75a2.25,2.25,0,0,0-2.57-1.33,2.35,2.35,0,0,0-1.76,2.42V67.23a2.29,2.29,0,1,0,4.57,0V48.16c2,4.49,4.24,9.48,6,13.4,1,2.32,2,4.53,3,6.75a2.21,2.21,0,0,0,2.57,1.35m34.54-3.09L222.8,36.68a2.23,2.23,0,0,0-4.39,0l-7.62,29.89a2.47,2.47,0,0,0,1.57,3,2.25,2.25,0,0,0,2.81-1.7c.14-.41.24-.93.39-1.49.23-1,.57-2.32,1-3.92h8.1c.38,1.6.76,2.94,1,3.92.14.57.23,1.08.38,1.49a2.25,2.25,0,0,0,2.81,1.7,2.47,2.47,0,0,0,1.57-3m-7.05-9h-5.53c.9-3.56,1.86-7.52,2.76-10.88.9,3.35,1.86,7.32,2.76,10.88" transform="translate(-34.86 -21.95)"/><path class="cls-3" d="M213.28,110.06v9.77a.77.77,0,0,0,.79.73.75.75,0,0,0,.8-.73v-9.77a.75.75,0,0,0-.8-.73.77.77,0,0,0-.79.73m-12.67,0v9.77a.77.77,0,0,0,.79.73.75.75,0,0,0,.79-.73v-9.77a.75.75,0,0,0-.79-.73.77.77,0,0,0-.79.73m-39,0v9.77a.77.77,0,0,0,.79.73.75.75,0,0,0,.79-.73v-9.77a.75.75,0,0,0-.79-.73.77.77,0,0,0-.79.73m-56.72,4.16h-3.71V112.5a1.86,1.86,0,0,1,3.71,0Zm1.59.73V112.5a3.46,3.46,0,0,0-6.89,0v4.89a3.15,3.15,0,0,0,2.12,2.93,3.69,3.69,0,0,0,3.77-.68.68.68,0,0,0,.24-.51.62.62,0,0,0-.24-.52.83.83,0,0,0-.58-.22.81.81,0,0,0-.56.22,1.93,1.93,0,0,1-2,.37,1.7,1.7,0,0,1-1.14-1.59v-1.71h4.51a.75.75,0,0,0,.8-.73m4.59,5.25a.67.67,0,0,0-.29-1,1.19,1.19,0,0,1-.66-1.05v-13a.75.75,0,0,0-.8-.73.77.77,0,0,0-.79.73v13a2.72,2.72,0,0,0,1.46,2.32.82.82,0,0,0,1.09-.27m4.1-13.8a1.06,1.06,0,1,0-1.06,1,1,1,0,0,0,1.06-1M117.55,119h-1.86a1.72,1.72,0,1,1,0-3.42h1.86Zm-.5-9.43a3.6,3.6,0,0,0-3.71.68.67.67,0,0,0-.21.51.75.75,0,0,0,.21.51.79.79,0,0,0,.56.22.82.82,0,0,0,.58-.22,1.84,1.84,0,0,1,2-.37,1.69,1.69,0,0,1,1.11,1.54v1.66h-1.86a3.19,3.19,0,1,0,0,6.35h2.65a.77.77,0,0,0,.79-.73v-7.28a3.11,3.11,0,0,0-2.09-2.88m2.36-3.18a1.06,1.06,0,1,0-1.06,1,1,1,0,0,0,1.06-1m14.37,13.44V112.6a3.33,3.33,0,0,0-3.45-3.17h-8a.75.75,0,0,0-.79.73v9.68a.75.75,0,0,0,.79.73.77.77,0,0,0,.79-.73v-8.94h3.71v8.94a.75.75,0,0,0,.79.73.77.77,0,0,0,.8-.73v-8.94h1.86a1.78,1.78,0,0,1,1.85,1.71v7.23a.75.75,0,0,0,.8.73.77.77,0,0,0,.8-.73m9.41-9.55a.73.73,0,0,0-.53-.93.82.82,0,0,0-1,.49l-2.44,7.45-2.41-7.45a.83.83,0,0,0-1-.49.73.73,0,0,0-.53.93l3.1,9.55-1,2.93a1.8,1.8,0,0,1-1.78,1.22.74.74,0,1,0,0,1.47,3.61,3.61,0,0,0,2.07-.63,3.09,3.09,0,0,0,1.24-1.64l1-3.13Zm9.06,9.21-3.34-5.62,3.24-3.32a.69.69,0,0,0-.05-1,.88.88,0,0,0-1.14.05l-4.42,4.57v-9a.77.77,0,0,0-.8-.73.75.75,0,0,0-.79.73v14.66a.75.75,0,0,0,.79.73.77.77,0,0,0,.8-.73v-3.49l1.27-1.29,3,5.15a.82.82,0,0,0,1.09.27.67.67,0,0,0,.32-1m7.32-2.15a3,3,0,0,0-1.38-2.29l-2.46-1.59a1.39,1.39,0,0,1-.19-2.28,1.61,1.61,0,0,1,1.33-.36,1.54,1.54,0,0,1,1.14.71.82.82,0,0,0,1.09.27.69.69,0,0,0,.29-1,3.34,3.34,0,0,0-2.28-1.44,3.38,3.38,0,0,0-2.62.76,2.73,2.73,0,0,0-1,2.35,2.85,2.85,0,0,0,1.35,2.2l2.47,1.61a1.45,1.45,0,0,1,.72,1.17,1.38,1.38,0,0,1-.53,1.25,1.76,1.76,0,0,1-1.4.39,1.72,1.72,0,0,1-1.22-.76.82.82,0,0,0-1.09-.27.69.69,0,0,0-.29,1,3.32,3.32,0,0,0,2.36,1.49,3.39,3.39,0,0,0,2.7-.78,2.79,2.79,0,0,0,1.06-2.42m3.9-10.94a1.07,1.07,0,1,0-1.06,1,1,1,0,0,0,1.06-1m4.61,0a1.06,1.06,0,1,0-1.06,1,1,1,0,0,0,1.06-1M170.46,119h-1.86a1.72,1.72,0,1,1,0-3.42h1.86Zm-.51-9.43a3.6,3.6,0,0,0-3.71.68.67.67,0,0,0-.21.51.75.75,0,0,0,.21.51.8.8,0,0,0,.56.22.82.82,0,0,0,.58-.22,1.84,1.84,0,0,1,2-.37,1.69,1.69,0,0,1,1.11,1.54v1.66h-1.86a3.19,3.19,0,1,0,0,6.35h2.65a.77.77,0,0,0,.8-.73v-7.28a3.11,3.11,0,0,0-2.1-2.88m2.36-3.18a1.06,1.06,0,1,0-1.06,1,1,1,0,0,0,1.06-1M184,114.21h-3.71V112.5a1.86,1.86,0,0,1,3.71,0Zm1.59.73V112.5a3.46,3.46,0,0,0-6.89,0v4.89a3.15,3.15,0,0,0,2.12,2.93,3.69,3.69,0,0,0,3.76-.68.68.68,0,0,0,.24-.51.62.62,0,0,0-.24-.52.83.83,0,0,0-.58-.22.81.81,0,0,0-.56.22,1.93,1.93,0,0,1-2,.37,1.7,1.7,0,0,1-1.14-1.59v-1.71h4.51a.75.75,0,0,0,.79-.73m4.13,2.44v-6.5h1.86a.74.74,0,1,0,0-1.47h-1.86v-4.25a.8.8,0,0,0-1.59,0v4.25h-1.33a.74.74,0,1,0,0,1.47h1.33v6.5a3.31,3.31,0,0,0,3.45,3.18.74.74,0,1,0,0-1.47,1.78,1.78,0,0,1-1.86-1.71m9.33,0a3,3,0,0,0-1.38-2.29l-2.47-1.59a1.39,1.39,0,0,1-.18-2.28,1.61,1.61,0,0,1,1.33-.36,1.53,1.53,0,0,1,1.14.71.82.82,0,0,0,1.09.27.69.69,0,0,0,.29-1,3.33,3.33,0,0,0-2.28-1.44,3.38,3.38,0,0,0-2.62.76,2.72,2.72,0,0,0-1,2.35,2.85,2.85,0,0,0,1.35,2.2l2.47,1.61a1.45,1.45,0,0,1,.72,1.17,1.39,1.39,0,0,1-.53,1.25,1.77,1.77,0,0,1-1.41.39,1.74,1.74,0,0,1-1.22-.76.82.82,0,0,0-1.09-.27.69.69,0,0,0-.29,1,3.32,3.32,0,0,0,2.36,1.49,3.39,3.39,0,0,0,2.7-.78,2.79,2.79,0,0,0,1.06-2.42m3.37-10.94a1.06,1.06,0,1,0-1.06,1,1,1,0,0,0,1.06-1m9.07,3.88a.73.73,0,0,0-.53-.93.87.87,0,0,0-1,.49l-.88,2.71c-.5,1.54-1.11,3.37-1.54,4.74-.45-1.37-1-3.2-1.54-4.74l-.88-2.71a.85.85,0,0,0-1-.49.77.77,0,0,0-.56.93l3.18,9.77a.83.83,0,0,0,1.54,0Zm3.61-3.88a1.06,1.06,0,1,0-1.06,1,1,1,0,0,0,1.06-1m4.85,13.8a.67.67,0,0,0-.29-1,1.19,1.19,0,0,1-.66-1.05v-13a.75.75,0,0,0-.8-.73.77.77,0,0,0-.79.73v13a2.72,2.72,0,0,0,1.46,2.32.82.82,0,0,0,1.09-.27m4.24,0a.67.67,0,0,0-.29-1,1.19,1.19,0,0,1-.66-1.05v-13a.75.75,0,0,0-.8-.73.77.77,0,0,0-.79.73v13a2.72,2.72,0,0,0,1.46,2.32.82.82,0,0,0,1.09-.27m6.76-6h-3.71V112.5a1.86,1.86,0,0,1,3.71,0Zm1.59.73V112.5a3.46,3.46,0,0,0-6.89,0v4.89a3.15,3.15,0,0,0,2.12,2.93,3.68,3.68,0,0,0,3.76-.68.67.67,0,0,0,.24-.51.61.61,0,0,0-.24-.52.82.82,0,0,0-.58-.22.81.81,0,0,0-.56.22,1.93,1.93,0,0,1-2,.37,1.7,1.7,0,0,1-1.14-1.59v-1.71h4.51a.75.75,0,0,0,.8-.73" transform="translate(-34.86 -21.95)"/><path class="cls-3" d="M219.62,87.28v9.77a.77.77,0,0,0,.8.73.75.75,0,0,0,.79-.73V87.28a.75.75,0,0,0-.79-.73.77.77,0,0,0-.8.73m-36.08,0v9.77a.77.77,0,0,0,.8.73.75.75,0,0,0,.79-.73V87.28a.75.75,0,0,0-.79-.73.77.77,0,0,0-.8.73m-74.3,0v9.77a.77.77,0,0,0,.8.73.75.75,0,0,0,.79-.73V87.28a.75.75,0,0,0-.79-.73.77.77,0,0,0-.8.73M108.17,83a.78.78,0,0,0-.85-.78h-6.9a.78.78,0,1,0,0,1.56H103V97.05a.81.81,0,0,0,.85.78.78.78,0,0,0,.85-.78V83.76h2.6a.78.78,0,0,0,.85-.78m2.93.64a1.06,1.06,0,1,0-1.06,1,1,1,0,0,0,1.06-1m7.84,7.82h-3.71V89.72a1.86,1.86,0,0,1,3.71,0Zm1.59.73V89.72a3.46,3.46,0,0,0-6.89,0v4.88a3.15,3.15,0,0,0,2.12,2.93,3.69,3.69,0,0,0,3.77-.69.68.68,0,0,0,.24-.51.61.61,0,0,0-.24-.51.82.82,0,0,0-.58-.22.8.8,0,0,0-.56.22,1.94,1.94,0,0,1-2,.37,1.7,1.7,0,0,1-1.14-1.59V92.9h4.51a.75.75,0,0,0,.79-.73m4.73,2.44v-6.5h1.86a.74.74,0,1,0,0-1.47h-1.86V82.4a.8.8,0,0,0-1.59,0v4.25h-1.33a.74.74,0,1,0,0,1.47h1.33v6.5a3.31,3.31,0,0,0,3.45,3.18.74.74,0,1,0,0-1.47,1.78,1.78,0,0,1-1.86-1.71m9.16,0a1.86,1.86,0,0,1-3.71,0V89.72a1.86,1.86,0,0,1,3.71,0Zm1.59,0V89.72a3.46,3.46,0,0,0-6.89,0v4.88a3.46,3.46,0,0,0,6.89,0m7,1.61H141.2a1.72,1.72,0,1,1,0-3.42H143Zm1.59.73V89.68a3.12,3.12,0,0,0-2.09-2.88,3.61,3.61,0,0,0-3.71.68.61.61,0,0,0-.24.51.68.68,0,0,0,.24.51.79.79,0,0,0,.56.22.81.81,0,0,0,.58-.22,1.84,1.84,0,0,1,2-.37A1.68,1.68,0,0,1,143,89.68v1.66H141.2a3.19,3.19,0,1,0,0,6.35h2.65a.77.77,0,0,0,.79-.73m10.09-2.35v-6.5h1.85a.74.74,0,1,0,0-1.47h-1.85V82.4a.8.8,0,0,0-1.59,0v4.25h-1.33a.74.74,0,1,0,0,1.47h1.33v6.5a3.31,3.31,0,0,0,3.45,3.18.74.74,0,1,0,0-1.47,1.78,1.78,0,0,1-1.85-1.71m8.69,1.61h-1.85a1.72,1.72,0,1,1,0-3.42h1.85ZM165,97V89.68a3.12,3.12,0,0,0-2.09-2.88,3.61,3.61,0,0,0-3.71.68A.62.62,0,0,0,159,88a.68.68,0,0,0,.24.51.8.8,0,0,0,.56.22.81.81,0,0,0,.58-.22,1.84,1.84,0,0,1,2-.37,1.68,1.68,0,0,1,1.11,1.54v1.66h-1.85a3.19,3.19,0,1,0,0,6.35h2.65A.77.77,0,0,0,165,97m7.8-8.89a.7.7,0,0,0-.29-1,3.87,3.87,0,0,0-1.72-.41h-2.33a.75.75,0,0,0-.79.73v9.67a.8.8,0,0,0,1.59,0V88.11h1.54a2.07,2.07,0,0,1,.93.22.8.8,0,0,0,1.09-.27m8.61-.56a.73.73,0,0,0-.53-.93.87.87,0,0,0-1,.49L179,89.77c-.5,1.54-1.11,3.37-1.54,4.74-.45-1.37-1-3.2-1.54-4.74l-.88-2.71a.85.85,0,0,0-1-.49.77.77,0,0,0-.56.93l3.18,9.77a.83.83,0,0,0,1.54,0Zm4-3.89a1.06,1.06,0,1,0-1.06,1,1,1,0,0,0,1.06-1m4.93,11v-6.5h1.86a.74.74,0,1,0,0-1.47h-1.86V82.4a.8.8,0,0,0-1.59,0v4.25h-1.32a.74.74,0,1,0,0,1.47h1.32v6.5a3.31,3.31,0,0,0,3.45,3.18.74.74,0,1,0,0-1.47,1.78,1.78,0,0,1-1.86-1.71m9.7,0a3,3,0,0,0-1.38-2.29l-2.46-1.59A1.38,1.38,0,0,1,196,88.4a1.61,1.61,0,0,1,1.32-.37,1.55,1.55,0,0,1,1.14.71.82.82,0,0,0,1.09.27.69.69,0,0,0,.29-1,3.34,3.34,0,0,0-2.28-1.44,3.38,3.38,0,0,0-2.62.76,2.72,2.72,0,0,0-1,2.35,2.84,2.84,0,0,0,1.35,2.2l2.47,1.61a1.45,1.45,0,0,1,.72,1.17,1.39,1.39,0,0,1-.53,1.25,1.77,1.77,0,0,1-1.41.39,1.71,1.71,0,0,1-1.22-.76.82.82,0,0,0-1.09-.27.69.69,0,0,0-.29,1,3.32,3.32,0,0,0,2.36,1.49A3.39,3.39,0,0,0,199,97,2.78,2.78,0,0,0,200,94.56m7-3.13h-3.71V89.72a1.86,1.86,0,0,1,3.71,0Zm1.59.73V89.72a3.46,3.46,0,0,0-6.89,0v4.88a3.15,3.15,0,0,0,2.12,2.93,3.69,3.69,0,0,0,3.76-.69.67.67,0,0,0,.24-.51.61.61,0,0,0-.24-.51.81.81,0,0,0-.58-.22.79.79,0,0,0-.56.22,2,2,0,0,1-2,.37,1.7,1.7,0,0,1-1.14-1.59V92.9h4.51a.75.75,0,0,0,.79-.73m9.23-4.66a.73.73,0,0,0-.53-.93.87.87,0,0,0-1,.49l-.88,2.71c-.5,1.54-1.11,3.37-1.54,4.74-.45-1.37-1-3.2-1.54-4.74l-.88-2.71a.85.85,0,0,0-1-.49.77.77,0,0,0-.56.93l3.18,9.77a.83.83,0,0,0,1.54,0Zm3.61-3.89a1.06,1.06,0,1,0-1.06,1,1,1,0,0,0,1.06-1m5.22,13.8a.67.67,0,0,0-.29-1,1.19,1.19,0,0,1-.66-1v-13a.75.75,0,0,0-.79-.73.77.77,0,0,0-.8.73v13a2.72,2.72,0,0,0,1.46,2.32.82.82,0,0,0,1.09-.27m4.61,0a.67.67,0,0,0-.29-1,1.19,1.19,0,0,1-.66-1v-13a.75.75,0,0,0-.8-.73.77.77,0,0,0-.79.73v13a2.72,2.72,0,0,0,1.46,2.32.82.82,0,0,0,1.09-.27m7-6h-3.71V89.72a1.86,1.86,0,0,1,3.71,0Zm1.59.73V89.72a3.46,3.46,0,0,0-6.9,0v4.88a3.15,3.15,0,0,0,2.12,2.93,3.69,3.69,0,0,0,3.76-.69.68.68,0,0,0,.24-.51.61.61,0,0,0-.24-.51.81.81,0,0,0-.58-.22.8.8,0,0,0-.56.22,1.94,1.94,0,0,1-2,.37,1.7,1.7,0,0,1-1.14-1.59V92.9h4.51a.75.75,0,0,0,.8-.73m5.35,7.33a1.78,1.78,0,0,1-1.86,1.71.74.74,0,1,0,0,1.47,3.31,3.31,0,0,0,3.44-3.17V87.28a.75.75,0,0,0-.79-.73.77.77,0,0,0-.79.73Zm1.85-15.88a1.06,1.06,0,1,0-1.06,1,1,1,0,0,0,1.06-1m6.63,12.6h-1.85a1.72,1.72,0,1,1,0-3.42h1.85Zm1.59.73V89.68a3.12,3.12,0,0,0-2.09-2.88,3.61,3.61,0,0,0-3.71.68.61.61,0,0,0-.24.51.68.68,0,0,0,.24.51.79.79,0,0,0,.56.22.81.81,0,0,0,.58-.22,1.84,1.84,0,0,1,2-.37,1.68,1.68,0,0,1,1.11,1.54v1.66h-1.85a3.19,3.19,0,1,0,0,6.35h2.65a.77.77,0,0,0,.79-.73" transform="translate(-34.86 -21.95)"/></g></g></g></svg>