<svg xmlns="http://www.w3.org/2000/svg" viewBox="0 0 450 200"><defs><style>.cls-1{fill:#7f3f98;}</style></defs><title>finna-fi</title><g id="Grafiikka"><path class="cls-1" d="M35,78.23a2,2,0,1,1-2-2,2,2,0,0,1,2,2M63,41.17a2,2,0,1,1,2,2,2,2,0,0,1-2-2m-2.7,22.08a2,2,0,1,1,2,2,2,2,0,0,1-2-2M44.78,55a3.68,3.68,0,1,1,3.69-3.68A3.68,3.68,0,0,1,44.78,55M48.7,82.37a6.64,6.64,0,0,0-2.14.95V58.15a6.79,6.79,0,0,0,2.14-1Zm1.74,3.16a3.64,3.64,0,1,1-3.63,3.64,3.64,3.64,0,0,1,3.63-3.64m34,3c0,5-4.43,7.34-4.6,7.43l-25.11,12.5a10.45,10.45,0,0,1-4.69,1.07,13.39,13.39,0,0,1-5.17-1.07L29.7,100.9l15.11-7.55a7,7,0,0,0,12.66-4.18V67.23l1.83-.88A4.31,4.31,0,1,0,58,63.25v.06l-2.85,1.43a1.64,1.64,0,0,0-.91,1.47v17A7,7,0,0,0,52,82.32V49.53l10.16-5.1a4.3,4.3,0,1,0-1.5-3.26c0,.1,0,.2,0,.3L50.13,46.78a7,7,0,0,0-12.38,4.57c0,.15,0,22.25,0,22.25l-2.27,1.13a4.3,4.3,0,1,0,1.81,3.5,3.82,3.82,0,0,0-.06-.68l2.91-1.46A1.64,1.64,0,0,0,41,74.61V57.3a7.19,7.19,0,0,0,2.21.92V90.43L26,99.05,19.78,96c-4.46-2.23-4.59-7.24-4.6-7.43V42.43c0-5,4.43-7.33,4.6-7.42L44.88,22.5a10.46,10.46,0,0,1,4.7-1.06,13.35,13.35,0,0,1,5.16,1.06L79.85,35c4.46,2.22,4.59,7.23,4.6,7.42ZM82.63,29.44,57.52,16.94a18.94,18.94,0,0,0-7.94-1.73,16.58,16.58,0,0,0-7.48,1.73L17,29.44c-.33.16-8,4.11-8,13v46.1c0,.37.09,9,8,13L42.1,114a19.06,19.06,0,0,0,7.95,1.73A16.53,16.53,0,0,0,57.52,114l25.11-12.51c.32-.16,8-4.1,8-13V42.43c0-.37-.09-9-8-13"/><path class="cls-1" d="M117.94,92.53a3.83,3.83,0,0,0,3.72-4V67.72h10.23a4,4,0,0,0,0-8H121.66V44.59h11.78a4,4,0,0,0,0-8.05h-15.5a3.83,3.83,0,0,0-3.72,4V88.51a3.83,3.83,0,0,0,3.72,4m44.48.34a3.83,3.83,0,0,0,3.72-4V40.23a3.73,3.73,0,1,0-7.44,0V88.84a3.83,3.83,0,0,0,3.72,4M217,92.79a4,4,0,0,0,2.87-4V40.23a3.73,3.73,0,1,0-7.43,0v31c-3.34-7.3-6.9-15.43-9.77-21.8-1.7-3.77-3.33-7.37-4.88-11a3.65,3.65,0,0,0-4.19-2.17,3.81,3.81,0,0,0-2.86,3.93V88.84a3.73,3.73,0,1,0,7.44,0v-31c3.17,7.3,6.9,15.42,9.76,21.79,1.71,3.77,3.33,7.38,4.88,11A3.6,3.6,0,0,0,217,92.79m53.78,0a4,4,0,0,0,2.87-4V40.23a3.73,3.73,0,1,0-7.44,0v31c-3.33-7.3-6.9-15.43-9.76-21.8-1.71-3.77-3.33-7.37-4.89-11a3.63,3.63,0,0,0-4.18-2.17,3.81,3.81,0,0,0-2.86,3.93V88.84a3.73,3.73,0,1,0,7.43,0v-31c3.19,7.3,6.9,15.42,9.77,21.79,1.71,3.77,3.33,7.38,4.88,11a3.59,3.59,0,0,0,4.18,2.19m56.18-5L314.61,39.15a3.63,3.63,0,0,0-7.13,0l-12.4,48.61a4,4,0,0,0,2.56,4.94,3.65,3.65,0,0,0,4.56-2.77c.23-.67.39-1.51.63-2.43.38-1.59.93-3.77,1.62-6.37h13.18c.61,2.6,1.24,4.78,1.63,6.37.23.92.38,1.76.62,2.43a3.66,3.66,0,0,0,4.57,2.77A4,4,0,0,0,327,87.76M315.53,73.09h-9c1.47-5.78,3-12.24,4.49-17.7,1.47,5.46,3,11.92,4.49,17.7"/></g><g id="SV"><path class="cls-1" d="M113.69,137.35V114.48A1.26,1.26,0,0,1,115,113.2h8a1.28,1.28,0,0,1,0,2.56h-6.72v8.47h5.92a1.28,1.28,0,0,1,0,2.56h-5.92v10.56a1.22,1.22,0,0,1-1.28,1.28A1.26,1.26,0,0,1,113.69,137.35Z"/><path class="cls-1" d="M131.89,138.71a5.19,5.19,0,0,1-5.2-5.2v-8a5.2,5.2,0,0,1,10.4,0v8A5.19,5.19,0,0,1,131.89,138.71Zm-3.2-21.59a1.6,1.6,0,1,1,1.6-1.6A1.56,1.56,0,0,1,128.69,117.12Zm6,16.39v-8a2.8,2.8,0,0,0-5.6,0v8a2.8,2.8,0,0,0,5.6,0Zm.4-16.39a1.6,1.6,0,1,1,1.6-1.6A1.56,1.56,0,0,1,135.09,117.12Z"/><path class="cls-1" d="M141.61,137.51V121.68a1.19,1.19,0,0,1,1.2-1.21h4a5.6,5.6,0,0,1,2.6.68,1.2,1.2,0,0,1,.44,1.65,1.15,1.15,0,0,1-1.64.43,2.92,2.92,0,0,0-1.4-.36H144v14.64a1.2,1.2,0,0,1-2.4,0Z"/><path class="cls-1" d="M159.65,115.52a1.6,1.6,0,1,1,1.6,1.6A1.56,1.56,0,0,1,159.65,115.52Zm1.6,23.19a1.2,1.2,0,0,1-1.2-1.2v-16a1.21,1.21,0,0,1,1.2-1.2,1.18,1.18,0,0,1,1.2,1.2v16A1.18,1.18,0,0,1,161.25,138.71Z"/><path class="cls-1" d="M167.45,137.51V121.68a1.19,1.19,0,0,1,1.2-1.21h4a5.22,5.22,0,0,1,5.2,5.2v11.84a1.2,1.2,0,0,1-1.2,1.2,1.18,1.18,0,0,1-1.2-1.2V125.67a2.78,2.78,0,0,0-2.8-2.8h-2.8v14.64a1.2,1.2,0,0,1-1.2,1.2A1.18,1.18,0,0,1,167.45,137.51Z"/><path class="cls-1" d="M180.77,121.68a1.19,1.19,0,0,1,1.2-1.21h2v-3a5.19,5.19,0,0,1,5.2-5.2,1.2,1.2,0,1,1,0,2.4,2.78,2.78,0,0,0-2.8,2.8v3h2.8a1.2,1.2,0,1,1,0,2.4h-2.8v14.64a1.2,1.2,0,0,1-2.4,0V122.87h-2A1.18,1.18,0,0,1,180.77,121.68Z"/><path class="cls-1" d="M193.29,133.51v-8a5.2,5.2,0,1,1,10.4,0v8a5.2,5.2,0,0,1-10.4,0Zm2.4-8v8a2.8,2.8,0,1,0,5.6,0v-8a2.8,2.8,0,0,0-5.6,0Z"/><path class="cls-1" d="M208.21,137.51V121.68a1.19,1.19,0,0,1,1.2-1.21h4a5.6,5.6,0,0,1,2.6.68,1.2,1.2,0,0,1,.44,1.65,1.15,1.15,0,0,1-1.64.43,2.92,2.92,0,0,0-1.4-.36h-2.8v14.64a1.2,1.2,0,0,1-2.4,0Z"/><path class="cls-1" d="M222,137.51a1.2,1.2,0,0,1-1.2,1.2,1.18,1.18,0,0,1-1.2-1.2V121.68a1.19,1.19,0,0,1,1.2-1.21h12a5.22,5.22,0,0,1,5.2,5.2v11.84a1.2,1.2,0,0,1-1.2,1.2,1.18,1.18,0,0,1-1.2-1.2V125.67a2.78,2.78,0,0,0-2.8-2.8H230v14.64a1.2,1.2,0,0,1-1.2,1.2,1.18,1.18,0,0,1-1.2-1.2V122.87H222Z"/><path class="cls-1" d="M249.05,125.43a2.76,2.76,0,0,0-1.68-2.52,2.63,2.63,0,0,0-3,.6,1.18,1.18,0,0,1-.88.36,1.23,1.23,0,0,1-1.2-1.19,1,1,0,0,1,.36-.84,5.13,5.13,0,0,1,8.76,3.59v11.92a1.2,1.2,0,0,1-1.2,1.2h-4a5.2,5.2,0,1,1,0-10.4h2.8Zm-2.8,10.72h2.8v-5.6h-2.8a2.8,2.8,0,1,0,0,5.6Z"/><path class="cls-1" d="M254.37,121.68a1.19,1.19,0,0,1,1.2-1.21h2v-7a1.2,1.2,0,1,1,2.4,0v7h2.8a1.2,1.2,0,1,1,0,2.4H260v10.64a2.78,2.78,0,0,0,2.8,2.8,1.2,1.2,0,0,1,0,2.4,5.19,5.19,0,0,1-5.2-5.2V122.87h-2A1.18,1.18,0,0,1,254.37,121.68Z"/><path class="cls-1" d="M267,115.52a1.6,1.6,0,1,1,1.6,1.6A1.56,1.56,0,0,1,267,115.52Zm1.6,23.19a1.2,1.2,0,0,1-1.2-1.2v-16a1.21,1.21,0,0,1,1.2-1.2,1.18,1.18,0,0,1,1.2,1.2v16A1.18,1.18,0,0,1,268.57,138.71Z"/><path class="cls-1" d="M274.29,133.51v-8a5.2,5.2,0,0,1,10.4,0v8a5.2,5.2,0,1,1-10.4,0Zm2.4-8v8a2.8,2.8,0,0,0,5.6,0v-8a2.8,2.8,0,0,0-5.6,0Z"/><path class="cls-1" d="M289.21,137.51V121.68a1.19,1.19,0,0,1,1.2-1.21h4a5.22,5.22,0,0,1,5.2,5.2v11.84a1.2,1.2,0,0,1-1.2,1.2,1.18,1.18,0,0,1-1.2-1.2V125.67a2.78,2.78,0,0,0-2.8-2.8h-2.8v14.64a1.2,1.2,0,0,1-1.2,1.2A1.18,1.18,0,0,1,289.21,137.51Z"/><path class="cls-1" d="M310.89,133.51v-8a5.2,5.2,0,0,1,10.4,0v8a5.2,5.2,0,0,1-10.4,0Zm2.4-8v8a2.8,2.8,0,0,0,5.6,0v-8a2.8,2.8,0,0,0-5.6,0Z"/><path class="cls-1" d="M325.33,133.51v-8a5.11,5.11,0,0,1,3.2-4.79,5.24,5.24,0,0,1,5.68,1.12,1.33,1.33,0,0,1,0,1.71,1.32,1.32,0,0,1-.88.32,1.29,1.29,0,0,1-.84-.32,2.72,2.72,0,0,0-3-.64,2.78,2.78,0,0,0-1.72,2.6v8a2.79,2.79,0,0,0,4.76,2,1.15,1.15,0,0,1,.84-.36,1.18,1.18,0,0,1,.88.36,1.14,1.14,0,0,1,.31.84,1.28,1.28,0,0,1-.31.84,5.26,5.26,0,0,1-5.68,1.12A5.14,5.14,0,0,1,325.33,133.51Z"/><path class="cls-1" d="M338.33,137.51v-24a1.2,1.2,0,0,1,1.2-1.2,1.18,1.18,0,0,1,1.2,1.2v7h2.8a5.2,5.2,0,0,1,5.2,5.2v11.84a1.19,1.19,0,0,1-1.21,1.2,1.21,1.21,0,0,1-1.2-1.2V125.67a2.77,2.77,0,0,0-2.79-2.8h-2.8v14.64a1.18,1.18,0,0,1-1.2,1.2A1.2,1.2,0,0,1,338.33,137.51Z"/><path class="cls-1" d="M113.45,171.35V159.51a1.2,1.2,0,0,1,2.4,0v11.84a2.78,2.78,0,0,0,2.8,2.8h2.8V159.51a1.2,1.2,0,0,1,2.4,0v15.84a1.18,1.18,0,0,1-1.2,1.2h-4A5.19,5.19,0,0,1,113.45,171.35Z"/><path class="cls-1" d="M128.85,183.51V159.68a1.19,1.19,0,0,1,1.2-1.21h4a5.22,5.22,0,0,1,5.2,5.2v7.68a5.22,5.22,0,0,1-5.2,5.2h-2.8v7a1.2,1.2,0,0,1-1.2,1.2A1.18,1.18,0,0,1,128.85,183.51Zm5.2-22.64h-2.8v13.28h2.8a2.78,2.78,0,0,0,2.8-2.8v-7.68A2.78,2.78,0,0,0,134.05,160.87Z"/><path class="cls-1" d="M143.77,183.51V159.68a1.19,1.19,0,0,1,1.2-1.21h4a5.22,5.22,0,0,1,5.2,5.2v7.68a5.22,5.22,0,0,1-5.2,5.2h-2.8v7a1.2,1.2,0,0,1-1.2,1.2A1.18,1.18,0,0,1,143.77,183.51Zm5.2-22.64h-2.8v13.28H149a2.78,2.78,0,0,0,2.8-2.8v-7.68A2.78,2.78,0,0,0,149,160.87Z"/><path class="cls-1" d="M158.57,172.75V151.52a1.2,1.2,0,0,1,1.2-1.2,1.18,1.18,0,0,1,1.2,1.2v21.23a2,2,0,0,0,1,1.72,1.15,1.15,0,0,1,.44,1.64,1.18,1.18,0,0,1-1.64.44A4.5,4.5,0,0,1,158.57,172.75Z"/><path class="cls-1" d="M165.61,171.51v-8a5.2,5.2,0,0,1,10.4,0v4a1.18,1.18,0,0,1-1.2,1.2H168v2.8a2.79,2.79,0,0,0,4.76,2,1.15,1.15,0,0,1,.84-.36,1.18,1.18,0,0,1,.88.36,1,1,0,0,1,.36.84,1.15,1.15,0,0,1-.36.84,5.23,5.23,0,0,1-5.68,1.12A5.14,5.14,0,0,1,165.61,171.51Zm2.4-8v2.8h5.6v-2.8a2.8,2.8,0,0,0-5.6,0Z"/><path class="cls-1" d="M179.29,158.35a1.27,1.27,0,0,1,1.48.8l1.32,4.44c.76,2.52,1.64,5.52,2.32,7.76.64-2.24,1.56-5.24,2.32-7.76l1.32-4.44a1.29,1.29,0,0,1,1.52-.8,1.22,1.22,0,0,1,.8,1.53l-4.8,16a1.22,1.22,0,0,1-2.32,0l-4.8-16A1.28,1.28,0,0,1,179.29,158.35Z"/><path class="cls-1" d="M193.13,171.51v-8a5.2,5.2,0,0,1,10.4,0v4a1.18,1.18,0,0,1-1.2,1.2h-6.8v2.8a2.79,2.79,0,0,0,4.76,2,1.15,1.15,0,0,1,.84-.36,1.18,1.18,0,0,1,.88.36,1,1,0,0,1,.36.84,1.15,1.15,0,0,1-.36.84,5.23,5.23,0,0,1-5.68,1.12A5.14,5.14,0,0,1,193.13,171.51Zm2.4-8v2.8h5.6v-2.8a2.8,2.8,0,0,0-5.6,0Z"/><path class="cls-1" d="M207.61,172.75V151.52a1.2,1.2,0,0,1,1.2-1.2,1.18,1.18,0,0,1,1.2,1.2v21.23a2,2,0,0,0,1,1.72,1.15,1.15,0,0,1,.44,1.64,1.18,1.18,0,0,1-1.64.44A4.5,4.5,0,0,1,207.61,172.75Z"/><path class="cls-1" d="M221.21,171.59a2.4,2.4,0,0,0-1.08-1.92L216.41,167a4.73,4.73,0,0,1-2-3.6,4.62,4.62,0,0,1,1.56-3.84,4.85,4.85,0,0,1,4-1.24,5,5,0,0,1,3.44,2.37,1.2,1.2,0,0,1-2.08,1.19,2.28,2.28,0,0,0-1.72-1.15,2.37,2.37,0,0,0-2.76,2.51,2.25,2.25,0,0,0,1,1.8l3.72,2.6a5,5,0,0,1,2.08,3.76,4.73,4.73,0,0,1-1.6,4,4.83,4.83,0,0,1-4.08,1.28,5,5,0,0,1-3.56-2.44,1.2,1.2,0,1,1,2.08-1.2,2.59,2.59,0,0,0,1.84,1.24,2.51,2.51,0,0,0,2.12-.64A2.36,2.36,0,0,0,221.21,171.59Z"/><path class="cls-1" d="M227.21,171.51v-8a5.2,5.2,0,0,1,10.4,0v4a1.18,1.18,0,0,1-1.2,1.2h-6.8v2.8a2.79,2.79,0,0,0,4.76,2,1.15,1.15,0,0,1,.84-.36,1.18,1.18,0,0,1,.88.36,1,1,0,0,1,.36.84,1.15,1.15,0,0,1-.36.84,5.23,5.23,0,0,1-5.68,1.12A5.14,5.14,0,0,1,227.21,171.51Zm2.4-8v2.8h5.6v-2.8a2.8,2.8,0,0,0-5.6,0Z"/><path class="cls-1" d="M241.81,175.51V159.68a1.19,1.19,0,0,1,1.2-1.21h4a5.6,5.6,0,0,1,2.6.68,1.2,1.2,0,0,1,.44,1.65,1.15,1.15,0,0,1-1.64.43,2.92,2.92,0,0,0-1.4-.36h-2.8v14.64a1.2,1.2,0,0,1-2.4,0Z"/></g></svg>